# xmcd
#
# Track frame offsets: 
#        150
#        17028
#        33789
#        58437
#        78916
#        99141
#        121487
#        143288
#        162197
#        178028
#        198187
#        220400
#        236806
#        250011
#        272731
#        290964
#
# Disc length: 4171 seconds
#
# Revision: 0
# Processed by: cddbd v1.5.2PL0 Copyright (c) Steve Scherf et al.
# Submitted via: ExactAudioCopyFreeDBPlugin 1.0
#
DISCID=df104910
DTITLE=Walt Wilkind - A Good Ramble: 20 years
DYEAR=2015
DGENRE=Blues
TTITLE0=I chose this road
TTITLE1=Wrapped
TTITLE2=Big hopes
TTITLE3=A little farther west
TTITLE4=Ruby's 2 sad daughters
TTITLE5=7 Hillsides
TTITLE6=Walnut street
TTITLE7=Poetry
TTITLE8=Standing by the rambler
TTITLE9=The angels share
TTITLE10=Someone somewhere tonight
TTITLE11=I it weren't for you
TTITLE12=We've all got out reasons
TTITLE13=Long winter
TTITLE14=Blanco river meditation #2
TTITLE15=Songs about Texas
EXTD=
EXTT0=
EXTT1=
EXTT2=
EXTT3=
EXTT4=
EXTT5=
EXTT6=
EXTT7=
EXTT8=
EXTT9=
EXTT10=
EXTT11=
EXTT12=
EXTT13=
EXTT14=
EXTT15=
PLAYORDER=
